<svg width="34" height="34" viewBox="0 0 34 34" fill="none" xmlns="http://www.w3.org/2000/svg">
<rect width="34" height="34" rx="17" fill="#D9D9D9"/>
<path d="M17 4.5332C23.8851 4.53327 29.4668 10.1149 29.4668 17C29.4667 23.885 23.885 29.4667 17 29.4668C10.1149 29.4668 4.53327 23.8851 4.5332 17C4.5332 10.1149 10.1149 4.5332 17 4.5332ZM18.2373 6.81641C12.15 7.10043 8.76128 11.0739 7.07227 14.9883C6.90128 15.3846 7.02533 15.8429 7.35938 16.1162L9.46875 17.8418C9.95573 18.2402 10.6848 18.0939 11.0264 17.5654C12.9415 14.6021 16.0669 11.9168 19.208 10.7422C19.7589 10.5361 20.077 9.93168 19.876 9.37891L19.1777 7.45801C19.034 7.0629 18.6573 6.79681 18.2373 6.81641Z" fill="#8E44AD"/>
</svg>
